<?xml version="1.0" encoding="utf-8"?>
<!-- Generator: Adobe Illustrator 16.0.0, SVG Export Plug-In . SVG Version: 6.00 Build 0)  -->
<!DOCTYPE svg PUBLIC "-//W3C//DTD SVG 1.1//EN" "http://www.w3.org/Graphics/SVG/1.1/DTD/svg11.dtd">
<svg version="1.1"
	 id="svg3007" xmlns:dc="http://purl.org/dc/elements/1.1/" xmlns:cc="http://creativecommons.org/ns#" xmlns:rdf="http://www.w3.org/1999/02/22-rdf-syntax-ns#" xmlns:svg="http://www.w3.org/2000/svg" xmlns:sodipodi="http://sodipodi.sourceforge.net/DTD/sodipodi-0.dtd" xmlns:inkscape="http://www.inkscape.org/namespaces/inkscape" inkscape:version="0.48.5 r10040" sodipodi:docname="Telegram text logo2.svg"
	 xmlns="http://www.w3.org/2000/svg" xmlns:xlink="http://www.w3.org/1999/xlink" x="0px" y="0px" width="63px" height="16px"
	 viewBox="53.5 17 63 16" enable-background="new 53.5 17 63 16" xml:space="preserve">
<sodipodi:namedview  showborder="true" showgrid="false" inkscape:cy="-29.10437" inkscape:cx="-115.33299" inkscape:zoom="0.9899495" borderopacity="1.0" id="base" inkscape:current-layer="svg3007" inkscape:window-width="1280" inkscape:pageshadow="2" inkscape:window-maximized="1" inkscape:pageopacity="0.0" inkscape:window-y="-8" inkscape:document-units="px" inkscape:window-x="-8" inkscape:window-height="962">
	</sodipodi:namedview>
<g id="layer1" transform="translate(2.0203051,-1001.8571)">
	<path id="path3037" inkscape:connector-curvature="0" fill="#FFFFFF" d="M82.541,1034.052c-0.424-0.079-0.827-0.196-1.239-0.319
		c-0.003-0.432,0.035-0.881,0.118-1.292c3.695,1.067,4.551,0.369,4.617-1.994v-0.568l-0.479,0.437
		c-0.62,0.567-1.228,0.771-2.133,0.712c-1.799-0.116-2.796-1.432-2.8-3.695c-0.001-1.354,0.298-2.214,1.051-3.019
		c1.004-1.073,2.722-1.28,3.924-0.471l0.438,0.293v-0.308v-0.307l0.773,0.025l0.773,0.026l0.025,3.052
		c0.04,4.758-0.1,5.688-0.988,6.593C85.429,1034.222,84.211,1034.219,82.541,1034.052L82.541,1034.052z M84.883,1029.367
		c0.205-0.104,0.55-0.353,0.763-0.549l0.391-0.359v-1.485v-1.484l-0.278-0.233c-0.949-0.798-1.969-0.859-2.739-0.163
		c-0.499,0.451-0.719,1.102-0.726,2.149c-0.008,1.264,0.264,1.905,0.947,2.226C83.691,1029.679,84.349,1029.639,84.883,1029.367
		L84.883,1029.367z M62.497,1030.369c-0.905-0.862-1.33-2.213-1.149-3.646c0.147-1.164,0.502-1.923,1.2-2.566
		c0.554-0.511,1.075-0.726,1.895-0.782c1.999-0.137,3.184,1.227,3.19,3.669l0.002,0.642c-1.526,0.04-3.271-0.097-4.689,0.116
		c0.208,1.314,1.157,2.297,2.478,2.316c0.792,0,1.363-0.201,2.125-0.353l0.023,1.21c0,0-1.78,0.424-2.458,0.419
		C64.073,1031.398,63.085,1030.925,62.497,1030.369L62.497,1030.369z M66.042,1026.203c-0.002-0.753-0.492-1.46-1.089-1.573
		c-0.944-0.176-1.667,0.37-1.904,1.441l-0.083,0.376h1.539h1.538V1026.203L66.042,1026.203z M74.085,1030.369
		c-0.904-0.862-1.33-2.213-1.148-3.646c0.147-1.164,0.502-1.923,1.2-2.566c0.554-0.511,1.075-0.726,1.895-0.782
		c2-0.137,3.184,1.227,3.189,3.669l0.002,0.642c-1.628-0.021-3.188-0.015-4.729-0.027c0.092,1.552,1.094,2.539,2.518,2.46
		c0.801,0.015,1.503-0.203,2.126-0.352c0.138,0.085,0.104,1.066-0.041,1.188c-0.201,0.165-1.716,0.445-2.395,0.44
		C75.662,1031.398,74.674,1030.925,74.085,1030.369L74.085,1030.369z M77.63,1026.203c-0.001-0.753-0.491-1.46-1.089-1.573
		c-0.943-0.176-1.667,0.37-1.903,1.441l-0.084,0.376h1.539h1.539L77.63,1026.203L77.63,1026.203z M96.186,1031.279
		c-1.106-0.413-1.652-1.603-1.289-2.815c0.144-0.484,0.699-1.08,1.261-1.354c0.53-0.26,1.604-0.479,2.373-0.483l0.509-0.005v-0.623
		c-0.03-1.685-1.361-1.575-2.675-1.099c-0.354,0.127-0.816,0.232-0.9,0.259c-0.012-0.396-0.052-0.667-0.052-1.271l0.729-0.231
		c0.486-0.154,1.024-0.248,1.616-0.282c1.419-0.081,2.186,0.23,2.634,1.069c0.184,0.344,0.197,0.503,0.239,2.857
		c0.044,2.487,0.044,2.492,0.259,2.72c0.128,0.137,0.597,0.27,0.742,0.27c-0.004,0.52,0.056,0.498-0.007,0.984
		c-0.205,0.056-0.893,0.125-1.149,0.104c-0.5-0.041-0.813-0.252-1.05-0.711l-0.128-0.245l-0.329,0.264
		C98.21,1031.293,96.946,1031.562,96.186,1031.279L96.186,1031.279z M98.043,1029.949c0.195-0.07,0.498-0.219,0.675-0.332
		l0.317-0.207v-0.907v-0.906h-0.377c-0.895,0-1.957,0.458-2.174,0.937c-0.241,0.526-0.04,1.152,0.446,1.393
		c0.362,0.179,0.653,0.185,1.11,0.023H98.043z M55.516,1026.623v-4.6h-1.813h-1.813v-0.619v-0.619h4.467h4.468v0.619v0.619h-1.814
		h-1.813v4.6v4.6h-0.84h-0.84V1026.623z M69.581,1025.695v-5.529h0.796h0.796v5.529v5.529h-0.796h-0.796V1025.695z M89.839,1027.376
		v-3.855c0.516,0.018,1.052-0.006,1.568,0.01c-0.006,0.318,0.014,0.635,0.031,0.953c0.728-0.797,1.497-1.002,2.141-1.071
		l0.594-0.062v0.759v0.758c-0.996-0.292-2.032,0.365-2.507,1.005c-0.182,0.253-0.193,0.381-0.235,2.786l-0.044,2.521
		c-0.516,0.018-1.032,0.033-1.548,0.051V1027.376L89.839,1027.376z M103.019,1027.376v-3.849c0.53,0,1.063,0,1.594,0
		c0,0.353,0,0.968,0,1.32c0.672-0.755,1.484-1.466,2.388-1.452c1.105-0.044,1.56,0.671,2.052,1.464
		c1.382-1.557,3.902-2.003,4.684-0.152c0.075,2.528,0.031,3.466-0.01,6.514c-0.513,0.018-0.984-0.007-1.497,0.01
		c0.022-1.966-0.006-4.19-0.054-6.036c-0.197-0.388-0.562-0.692-1.191-0.525c-0.63,0.167-1.198,0.656-1.792,1.348
		c0,1.715,0.021,3.492,0.021,5.206h-0.793h-0.794c-0.016-2.01-0.033-4.02-0.05-6.029c-0.318-0.369-0.571-0.583-1.173-0.44
		c-0.601,0.144-1.397,0.618-1.79,1.372c0,1.699-0.021,3.399-0.021,5.098c-0.53,0-1.042,0-1.572,0
		C103.019,1029.941,103.019,1028.658,103.019,1027.376L103.019,1027.376z"/>
</g>
</svg>
