<svg xmlns="http://www.w3.org/2000/svg" width="63" height="16" viewBox="53.5 17 63 16"><path fill="#FFF" d="M84.56 32.195c-.423-.08-.826-.196-1.238-.32-.003-.43.035-.88.118-1.29 3.695 1.066 4.55.368 4.617-1.995v-.568l-.48.437c-.62.566-1.227.77-2.132.71-1.8-.115-2.796-1.43-2.8-3.694 0-1.354.298-2.214 1.05-3.02 1.005-1.072 2.723-1.28 3.925-.47l.438.293v-.616l.773.025.774.025.025 3.052c.04 4.758-.1 5.688-.99 6.593-1.19 1.005-2.41 1.002-4.08.835zm2.343-4.685a4.21 4.21 0 0 0 .763-.55l.39-.358V23.633l-.277-.233c-.95-.798-1.97-.86-2.74-.163-.5.45-.72 1.102-.726 2.15-.008 1.263.264 1.904.947 2.225.45.21 1.11.17 1.643-.102zm-22.386 1.002c-.905-.862-1.33-2.213-1.15-3.646.148-1.164.503-1.923 1.2-2.566.555-.51 1.076-.726 1.896-.782 2-.137 3.184 1.227 3.19 3.67l.002.64c-1.526.04-3.27-.096-4.69.117.21 1.314 1.158 2.297 2.48 2.316.79 0 1.362-.2 2.124-.352l.022 1.21s-1.78.424-2.458.42a3.95 3.95 0 0 1-2.617-1.026zm3.545-4.166c-.002-.753-.492-1.46-1.09-1.573-.943-.176-1.666.37-1.903 1.44l-.084.377h3.077v-.244zm8.043 4.166c-.904-.862-1.33-2.213-1.148-3.646.147-1.164.502-1.923 1.2-2.566.554-.51 1.075-.726 1.895-.782 2-.137 3.184 1.227 3.19 3.67v.64c-1.627-.02-3.187-.014-4.728-.026.092 1.552 1.094 2.54 2.518 2.46.8.015 1.503-.203 2.126-.352.138.085.104 1.066-.04 1.188-.202.165-1.717.445-2.396.44a3.96 3.96 0 0 1-2.617-1.026zm3.545-4.166c0-.753-.49-1.46-1.09-1.573-.942-.176-1.666.37-1.902 1.44l-.084.377H79.652l-.002-.244zm18.556 5.076c-1.106-.413-1.652-1.603-1.29-2.815.145-.484.7-1.08 1.262-1.354.53-.26 1.604-.48 2.373-.483l.51-.005v-.623c-.03-1.685-1.36-1.575-2.675-1.1-.354.128-.816.233-.9.26-.012-.396-.052-.667-.052-1.27l.73-.232a6.59 6.59 0 0 1 1.615-.282c1.42-.08 2.186.23 2.634 1.07.184.343.197.502.24 2.856.043 2.487.043 2.492.258 2.72.128.137.597.27.742.27-.004.52.056.498-.007.984-.205.056-.893.125-1.15.104-.5-.04-.812-.252-1.05-.71l-.127-.246-.33.264c-.758.606-2.022.875-2.782.592zm1.857-1.33c.195-.07.498-.22.675-.332l.317-.207V25.74h-.377c-.895 0-1.957.458-2.174.937-.24.526-.04 1.152.446 1.393.362.18.653.185 1.11.023h.003zm-42.527-3.326v-4.6H53.91v-1.238H62.845v1.238H59.22v9.2h-1.68v-4.6zm14.065-.928v-5.53h1.593v11.06H71.6v-5.53zm20.26 1.68v-3.854c.515.018 1.05-.006 1.567.01-.006.318.014.635.03.953.73-.797 1.498-1.002 2.142-1.07l.593-.063v1.517c-.996-.29-2.032.366-2.507 1.006-.182.253-.193.38-.235 2.786l-.043 2.52c-.516.02-1.032.034-1.548.052V25.52zm13.18 0V21.67h1.593v1.32c.672-.755 1.484-1.466 2.388-1.452 1.106-.044 1.56.67 2.053 1.464 1.382-1.557 3.902-2.003 4.684-.152.075 2.528.03 3.466-.01 6.514-.513.018-.984-.007-1.497.01.022-1.966-.006-4.19-.054-6.036-.197-.388-.562-.692-1.19-.525-.63.167-1.2.656-1.793 1.348 0 1.716.02 3.493.02 5.207h-1.585l-.05-6.03c-.318-.368-.57-.582-1.173-.44-.6.145-1.397.62-1.79 1.373 0 1.7-.02 3.4-.02 5.098h-1.573v-3.85z"/></svg>